<svg width="16" height="25" viewBox="0 0 16 25" fill="none" xmlns="http://www.w3.org/2000/svg">
<path d="M12.8 1.5625C13.2243 1.5625 13.6313 1.72712 13.9314 2.02015C14.2314 2.31317 14.4 2.7106 14.4 3.125V21.875C14.4 22.2894 14.2314 22.6868 13.9314 22.9799C13.6313 23.2729 13.2243 23.4375 12.8 23.4375H3.2C2.77565 23.4375 2.36869 23.2729 2.06863 22.9799C1.76857 22.6868 1.6 22.2894 1.6 21.875V3.125C1.6 2.7106 1.76857 2.31317 2.06863 2.02015C2.36869 1.72712 2.77565 1.5625 3.2 1.5625H12.8ZM3.2 0C2.35131 0 1.53737 0.32924 0.937258 0.915291C0.337142 1.50134 0 2.2962 0 3.125V21.875C0 22.7038 0.337142 23.4987 0.937258 24.0847C1.53737 24.6708 2.35131 25 3.2 25H12.8C13.6487 25 14.4626 24.6708 15.0627 24.0847C15.6629 23.4987 16 22.7038 16 21.875V3.125C16 2.2962 15.6629 1.50134 15.0627 0.915291C14.4626 0.32924 13.6487 0 12.8 0L3.2 0Z" fill="#307474"/>
<path d="M8.00039 21.875C8.42474 21.875 8.8317 21.7104 9.13176 21.4174C9.43182 21.1243 9.60039 20.7269 9.60039 20.3125C9.60039 19.8981 9.43182 19.5007 9.13176 19.2076C8.8317 18.9146 8.42474 18.75 8.00039 18.75C7.57604 18.75 7.16908 18.9146 6.86902 19.2076C6.56896 19.5007 6.40039 19.8981 6.40039 20.3125C6.40039 20.7269 6.56896 21.1243 6.86902 21.4174C7.16908 21.7104 7.57604 21.875 8.00039 21.875Z" fill="#307474"/>
</svg>
