<svg width="36" height="36" viewBox="0 0 36 36" fill="none" xmlns="http://www.w3.org/2000/svg">
<path d="M28.125 28.125C29.1196 28.125 30.0734 28.5201 30.7766 29.2234C31.4799 29.9266 31.875 30.8804 31.875 31.875C31.875 32.8696 31.4799 33.8234 30.7766 34.5266C30.0734 35.2299 29.1196 35.625 28.125 35.625C27.1304 35.625 26.1766 35.2299 25.4733 34.5266C24.7701 33.8234 24.375 32.8696 24.375 31.875C24.375 30.8804 24.7701 29.9266 25.4733 29.2234C26.1766 28.5201 27.1304 28.125 28.125 28.125ZM28.125 30C27.6277 30 27.1508 30.1975 26.7992 30.5492C26.4475 30.9008 26.25 31.3777 26.25 31.875C26.25 32.3723 26.4475 32.8492 26.7992 33.2008C27.1508 33.5525 27.6277 33.75 28.125 33.75C28.6223 33.75 29.0992 33.5525 29.4508 33.2008C29.8025 32.8492 30 32.3723 30 31.875C30 31.3777 29.8025 30.9008 29.4508 30.5492C29.0992 30.1975 28.6223 30 28.125 30ZM11.25 28.125C12.2446 28.125 13.1984 28.5201 13.9016 29.2234C14.6049 29.9266 15 30.8804 15 31.875C15 32.8696 14.6049 33.8234 13.9016 34.5266C13.1984 35.2299 12.2446 35.625 11.25 35.625C10.2554 35.625 9.30161 35.2299 8.59835 34.5266C7.89509 33.8234 7.5 32.8696 7.5 31.875C7.5 30.8804 7.89509 29.9266 8.59835 29.2234C9.30161 28.5201 10.2554 28.125 11.25 28.125V28.125ZM11.25 30C10.7527 30 10.2758 30.1975 9.92417 30.5492C9.57254 30.9008 9.375 31.3777 9.375 31.875C9.375 32.3723 9.57254 32.8492 9.92417 33.2008C10.2758 33.5525 10.7527 33.75 11.25 33.75C11.7473 33.75 12.2242 33.5525 12.5758 33.2008C12.9275 32.8492 13.125 32.3723 13.125 31.875C13.125 31.3777 12.9275 30.9008 12.5758 30.5492C12.2242 30.1975 11.7473 30 11.25 30ZM31.875 5.625H6.13687L10.9125 16.875H26.25C26.5416 16.8754 26.8291 16.8075 27.0897 16.6766C27.3502 16.5457 27.5764 16.3555 27.75 16.1212L33.375 8.62125H33.3769C33.5848 8.34254 33.7112 8.0115 33.7418 7.66512C33.7724 7.31874 33.7061 6.97066 33.5503 6.6598C33.3945 6.34893 33.1553 6.08752 32.8594 5.90478C32.5636 5.72204 32.2227 5.62517 31.875 5.625V5.625ZM26.25 18.75H10.9987L9.5625 21.675L9.375 22.5C9.375 22.9973 9.57254 23.4742 9.92417 23.8258C10.2758 24.1775 10.7527 24.375 11.25 24.375H31.875V26.25H11.25C10.5971 26.2503 9.95535 26.0801 9.38837 25.7563C8.82139 25.4325 8.34879 24.9662 8.01732 24.4037C7.68586 23.8412 7.50702 23.2018 7.4985 22.5489C7.48998 21.896 7.65207 21.2523 7.96875 20.6812L9.31875 17.9175L2.50875 1.875H0V0H3.75L5.34187 3.75H31.875C32.5835 3.75007 33.2775 3.95085 33.8766 4.3291C34.4757 4.70735 34.9554 5.24758 35.2601 5.88723C35.5648 6.52687 35.6821 7.23975 35.5983 7.9433C35.5146 8.64684 35.2332 9.31227 34.7869 9.8625L29.3231 17.1487C28.9777 17.6434 28.5179 18.0473 27.9828 18.3261C27.4478 18.6048 26.8533 18.7503 26.25 18.75V18.75Z" fill="#5A5A5A"/>
</svg>
