<svg width="224" height="176" viewBox="0 0 224 176" fill="none" xmlns="http://www.w3.org/2000/svg">
<path d="M16.75 80H112V95.875H16.75V80Z" fill="#307474"/>
<path d="M0.875 40.3125H80.25V56.1875H0.875V40.3125Z" fill="#307474"/>
<path d="M222.482 84.8101L198.669 29.2476C198.058 27.8195 197.041 26.6023 195.744 25.7472C194.448 24.8921 192.928 24.4366 191.375 24.4375H167.562V8.5625C167.562 6.45734 166.726 4.43841 165.237 2.94984C163.749 1.46127 161.73 0.625 159.625 0.625H32.6248V16.5H151.687V116.163C148.07 118.263 144.905 121.059 142.374 124.388C139.843 127.718 137.996 131.516 136.939 135.562H87.0602C85.1282 128.08 80.5337 121.559 74.1378 117.222C67.742 112.885 59.9839 111.029 52.3177 112.003C44.6516 112.977 37.6037 116.713 32.4952 122.511C27.3867 128.31 24.5684 135.772 24.5684 143.5C24.5684 151.228 27.3867 158.69 32.4952 164.489C37.6037 170.287 44.6516 174.023 52.3177 174.997C59.9839 175.971 67.742 174.115 74.1378 169.778C80.5337 165.441 85.1282 158.92 87.0602 151.438H136.939C138.666 158.25 142.615 164.292 148.161 168.608C153.708 172.924 160.535 175.267 167.562 175.267C174.59 175.267 181.417 172.924 186.963 168.608C192.51 164.292 196.458 158.25 198.185 151.438H215.187C217.292 151.438 219.311 150.601 220.8 149.113C222.289 147.624 223.125 145.605 223.125 143.5V87.9375C223.125 86.8622 222.906 85.7981 222.482 84.8101ZM56.4373 159.375C53.2975 159.375 50.2282 158.444 47.6176 156.7C45.007 154.955 42.9722 152.476 41.7707 149.575C40.5692 146.674 40.2548 143.482 40.8673 140.403C41.4799 137.323 42.9918 134.495 45.212 132.275C47.4321 130.055 50.2608 128.543 53.3402 127.93C56.4197 127.317 59.6116 127.632 62.5124 128.833C65.4132 130.035 67.8925 132.07 69.6369 134.68C71.3812 137.291 72.3123 140.36 72.3123 143.5C72.3081 147.709 70.6342 151.744 67.658 154.721C64.6817 157.697 60.6463 159.371 56.4373 159.375ZM167.562 40.3125H186.136L203.154 80H167.562V40.3125ZM167.562 159.375C164.423 159.375 161.353 158.444 158.743 156.7C156.132 154.955 154.097 152.476 152.896 149.575C151.694 146.674 151.38 143.482 151.992 140.403C152.605 137.323 154.117 134.495 156.337 132.275C158.557 130.055 161.386 128.543 164.465 127.93C167.545 127.317 170.737 127.632 173.637 128.833C176.538 130.035 179.017 132.07 180.762 134.68C182.506 137.291 183.437 140.36 183.437 143.5C183.433 147.709 181.759 151.744 178.783 154.721C175.807 157.697 171.771 159.371 167.562 159.375ZM207.25 135.562H198.185C196.437 128.763 192.482 122.737 186.94 118.427C181.398 114.118 174.582 111.77 167.562 111.75V95.875H207.25V135.562Z" fill="#307474"/>
</svg>
