<svg width="17" height="24" viewBox="0 0 17 24" fill="none" xmlns="http://www.w3.org/2000/svg">
<path d="M15.9358 5.94258C15.9017 5.84012 15.8419 5.6779 15.7565 5.4559C15.6711 5.23391 15.6114 5.08876 15.5772 5.02045C14.86 3.34695 13.8098 2.10891 12.4266 1.30631C11.0434 0.503715 9.60045 0.102417 8.09772 0.102417C6.151 0.102417 4.39212 0.742786 2.82108 2.02352C1.25004 3.30426 0.327912 5.10583 0.0546875 7.42824V8.4016L0.105917 8.65774V9.01635C0.174223 9.5628 0.353526 10.1861 0.643827 10.8862C0.934127 11.5864 1.19881 12.1499 1.43788 12.5768C1.67696 13.0037 2.06118 13.6526 2.59055 14.5235C3.11992 15.3944 3.46999 15.9665 3.64075 16.2397C4.63119 17.9132 6.151 20.3893 8.20018 23.668C8.4734 23.224 9.41261 21.6188 11.0178 18.8524C11.0861 18.75 11.2142 18.545 11.402 18.2377C11.5899 17.9303 11.7179 17.6912 11.7862 17.5204C11.8546 17.418 11.9655 17.2728 12.1192 17.085C12.2729 16.8972 12.3839 16.752 12.4522 16.6495C12.6913 16.2056 13.2121 15.3603 14.0147 14.1137C14.8173 12.8671 15.4065 11.8169 15.7821 10.9631C16.1578 10.1092 16.3457 9.2725 16.3457 8.45283V7.32578C16.3457 6.95009 16.2091 6.48903 15.9358 5.94258ZM8.14895 11.0143C6.81698 11.0143 5.89485 10.3654 5.38256 9.06758C5.3484 8.89682 5.33133 8.64067 5.33133 8.29914V7.63315C5.33133 6.77933 5.62163 6.12188 6.20223 5.66082C6.78283 5.19975 7.46589 4.96922 8.25141 4.96922C9.10523 4.96922 9.81391 5.25952 10.3774 5.84012C10.941 6.42072 11.2227 7.13794 11.2227 7.99176C11.2227 8.84559 10.9239 9.5628 10.3262 10.1434C9.72853 10.724 9.00277 11.0143 8.14895 11.0143Z" fill="#307474"/>
</svg>
