<svg width="45" height="45" viewBox="0 0 45 45" fill="none" xmlns="http://www.w3.org/2000/svg">
<path d="M31.0693 15.8203C29.6631 14.3262 28.3301 13.3154 27.0703 12.7881C25.8105 12.2607 24.4482 11.9824 22.9834 11.9531H22.8955C20.0537 11.9531 17.5488 13.0005 15.3809 15.0952C13.2129 17.1899 12.1289 19.7754 12.1289 22.8516C12.1289 25.957 13.2642 28.4839 15.5347 30.4321C17.8052 32.3804 20.2441 33.3545 22.8516 33.3545H22.8955C24.5654 33.3545 26.1108 33.0542 27.5317 32.4536C28.9526 31.853 30.293 30.6445 31.5527 28.8281H20.7422V17.6221L43.7256 17.71C44.1357 19.8486 44.3408 21.6797 44.3408 23.2031C44.3408 29.6191 42.356 34.8486 38.3862 38.8916C34.4165 42.9346 29.1797 44.9561 22.6758 44.9561C19.5996 44.9561 16.6699 44.3701 13.8867 43.1982C11.1035 42.0264 8.70117 40.4443 6.67969 38.4521C4.6582 36.46 3.04688 34.0869 1.8457 31.333C0.644531 28.5791 0.0439453 25.6787 0.0439453 22.6318C0.0439453 18.5596 1.05469 14.8169 3.07617 11.4038C5.09766 7.99072 7.84424 5.29541 11.3159 3.31787C14.7876 1.34033 18.5742 0.351562 22.6758 0.351562C25.8984 0.351562 29.0112 1.01074 32.0142 2.3291C35.0171 3.64746 37.5 5.625 39.4629 8.26172L31.0693 15.8203ZM22.8516 19.9072V26.6748H34.4092C34.292 27.3193 34.0869 27.9858 33.7939 28.6743C33.501 29.3628 33.0396 30.1099 32.4097 30.9155C31.7798 31.7212 31.0547 32.439 30.2344 33.0688C29.4141 33.6987 28.3594 34.2188 27.0703 34.6289C25.7812 35.0391 24.375 35.2441 22.8516 35.2441C19.3652 35.2441 16.3916 34.0137 13.9307 31.5527C11.4697 29.0918 10.2393 26.1475 10.2393 22.7197C10.2393 19.292 11.4844 16.333 13.9746 13.8428C16.4648 11.3525 19.4238 10.1074 22.8516 10.1074C26.1035 10.1074 28.8135 11.1621 30.9814 13.2715L36.5186 8.04199C32.7686 4.52637 28.2129 2.76855 22.8516 2.76855C17.2266 2.76855 12.4219 4.70947 8.4375 8.59131C4.45313 12.4731 2.46094 17.1826 2.46094 22.7197C2.46094 28.2275 4.45313 32.9224 8.4375 36.8042C12.4219 40.686 17.2266 42.627 22.8516 42.627C28.7402 42.627 33.4717 40.8179 37.0459 37.1997C40.6201 33.5815 42.4072 28.916 42.4072 23.2031C42.4072 22.002 42.3193 20.9033 42.1436 19.9072H22.8516Z" fill="#4849A3"/>
</svg>
