<svg width="41" height="41" viewBox="0 0 41 41" fill="none" xmlns="http://www.w3.org/2000/svg">
<path d="M20.5 0.8125C16.6062 0.8125 12.7998 1.96715 9.56222 4.13044C6.32463 6.29373 3.80123 9.3685 2.31113 12.9659C0.82103 16.5633 0.431152 20.5218 1.1908 24.3408C1.95045 28.1598 3.8255 31.6678 6.57884 34.4212C9.33219 37.1745 12.8402 39.0496 16.6592 39.8092C20.4782 40.5689 24.4367 40.179 28.0341 38.6889C31.6315 37.1988 34.7063 34.6754 36.8696 31.4378C39.0329 28.2002 40.1875 24.3938 40.1875 20.5C40.1875 15.2786 38.1133 10.271 34.4212 6.57883C30.729 2.88671 25.7215 0.8125 20.5 0.8125V0.8125ZM20.5 37.375C17.1624 37.375 13.8998 36.3853 11.1248 34.531C8.34968 32.6768 6.18677 30.0413 4.90954 26.9578C3.63231 23.8743 3.29813 20.4813 3.94926 17.2079C4.60038 13.9344 6.20757 10.9276 8.56758 8.56757C10.9276 6.20756 13.9344 4.60037 17.2079 3.94925C20.4813 3.29812 23.8743 3.6323 26.9578 4.90953C30.0413 6.18676 32.6768 8.34967 34.5311 11.1248C36.3853 13.8998 37.375 17.1624 37.375 20.5C37.375 24.9755 35.5971 29.2678 32.4324 32.4324C29.2678 35.5971 24.9755 37.375 20.5 37.375Z" fill="#737373"/>
<path d="M20.5 33.1562C21.665 33.1562 22.6094 32.2119 22.6094 31.0469C22.6094 29.8819 21.665 28.9375 20.5 28.9375C19.335 28.9375 18.3906 29.8819 18.3906 31.0469C18.3906 32.2119 19.335 33.1562 20.5 33.1562Z" fill="#454545"/>
<path d="M21.9063 9.25002H19.7969C18.9653 9.24816 18.1416 9.41058 17.373 9.72794C16.6044 10.0453 15.9061 10.5114 15.3181 11.0993C14.7301 11.6873 14.2641 12.3857 13.9467 13.1543C13.6293 13.9229 13.4669 14.7466 13.4688 15.5781V16.2813H16.2813V15.5781C16.2813 14.6457 16.6517 13.7515 17.311 13.0922C17.9703 12.4329 18.8645 12.0625 19.7969 12.0625H21.9063C22.8387 12.0625 23.7329 12.4329 24.3922 13.0922C25.0515 13.7515 25.4219 14.6457 25.4219 15.5781C25.4219 16.5105 25.0515 17.4048 24.3922 18.0641C23.7329 18.7234 22.8387 19.0938 21.9063 19.0938H19.0938V25.4219H21.9063V21.9063C23.5846 21.9063 25.1942 21.2396 26.3809 20.0528C27.5677 18.866 28.2344 17.2565 28.2344 15.5781C28.2344 13.8998 27.5677 12.2902 26.3809 11.1035C25.1942 9.91673 23.5846 9.25002 21.9063 9.25002V9.25002Z" fill="#5A5A5A"/>
</svg>
