<svg width="45" height="45" viewBox="0 0 45 45" fill="none" xmlns="http://www.w3.org/2000/svg">
<path d="M22.4561 0.175781C26.2061 0.175781 29.2676 0.219727 31.6406 0.307617C33.6621 0.395508 35.4639 0.74707 37.0459 1.3623C38.5693 1.94824 39.8877 2.79785 41.001 3.91113C42.1143 5.02441 42.9639 6.34277 43.5498 7.86621C44.165 9.44824 44.5166 11.25 44.6045 13.2715C44.6924 15.6445 44.7363 18.7061 44.7363 22.4561C44.7363 26.2061 44.6924 29.2676 44.6045 31.6406C44.5166 33.6621 44.165 35.4639 43.5498 37.0459C42.9639 38.5693 42.1143 39.8877 41.001 41.001C39.8877 42.1143 38.5693 42.9639 37.0459 43.5498C35.4639 44.165 33.6621 44.5166 31.6406 44.6045C29.2676 44.6924 26.2061 44.7363 22.4561 44.7363C18.7061 44.7363 15.6445 44.6924 13.2715 44.6045C11.25 44.5166 9.44824 44.165 7.86621 43.5498C6.34277 42.9639 5.02441 42.1143 3.91113 41.001C2.79785 39.8877 1.94824 38.5693 1.3623 37.0459C0.74707 35.4639 0.395508 33.6621 0.307617 31.6406C0.219727 29.2676 0.175781 26.2061 0.175781 22.4561C0.175781 18.7061 0.219727 15.6445 0.307617 13.2715C0.395508 11.25 0.74707 9.44824 1.3623 7.86621C1.94824 6.34277 2.79785 5.02441 3.91113 3.91113C5.02441 2.79785 6.34277 1.94824 7.86621 1.3623C9.44824 0.74707 11.25 0.395508 13.2715 0.307617C15.6445 0.219727 18.7061 0.175781 22.4561 0.175781ZM22.4561 3.07617C18.5596 3.07617 15.3809 3.12012 12.9199 3.20801C11.3379 3.2666 9.87305 3.54492 8.52539 4.04297C6.41602 4.92188 4.92188 6.41602 4.04297 8.52539C3.54492 9.87305 3.2666 11.3379 3.20801 12.9199C3.12012 15.3809 3.07617 18.5596 3.07617 22.4561C3.07617 26.3525 3.12012 29.5312 3.20801 31.9922C3.2666 33.5742 3.54492 35.0391 4.04297 36.3867C4.92188 38.4961 6.41602 39.9902 8.52539 40.8691C9.87305 41.3672 11.3379 41.6455 12.9199 41.7041C15.3809 41.792 18.5596 41.8359 22.4561 41.8359C26.3525 41.8359 29.5312 41.792 31.9922 41.7041C33.5742 41.6455 35.0391 41.3672 36.3867 40.8691C38.4961 39.9902 39.9902 38.4961 40.8691 36.3867C41.3672 35.0391 41.6455 33.5742 41.7041 31.9922C41.792 29.5312 41.8359 26.3525 41.8359 22.4561C41.8359 18.5596 41.792 15.3809 41.7041 12.9199C41.6455 11.3379 41.3672 9.87305 40.8691 8.52539C39.9902 6.41602 38.4961 4.92188 36.3867 4.04297C35.0391 3.54492 33.5742 3.2666 31.9922 3.20801C29.5312 3.12012 26.3525 3.07617 22.4561 3.07617ZM22.4561 31.377C24.917 31.377 27.019 30.5054 28.7622 28.7622C30.5054 27.019 31.377 24.917 31.377 22.4561C31.377 19.9951 30.5054 17.8931 28.7622 16.1499C27.019 14.4067 24.917 13.5352 22.4561 13.5352C19.9951 13.5352 17.8931 14.4067 16.1499 16.1499C14.4067 17.8931 13.5352 19.9951 13.5352 22.4561C13.5352 24.917 14.4067 27.019 16.1499 28.7622C17.8931 30.5054 19.9951 31.377 22.4561 31.377ZM22.4561 11.0303C25.6201 11.0303 28.3154 12.1436 30.542 14.3701C32.7686 16.5967 33.8818 19.292 33.8818 22.4561C33.8818 25.6201 32.7686 28.3154 30.542 30.542C28.3154 32.7686 25.6201 33.8818 22.4561 33.8818C19.292 33.8818 16.5967 32.7686 14.3701 30.542C12.1436 28.3154 11.0303 25.6201 11.0303 22.4561C11.0303 19.292 12.1436 16.5967 14.3701 14.3701C16.5967 12.1436 19.292 11.0303 22.4561 11.0303ZM37.0459 10.5908C37.0459 11.3232 36.7822 11.9458 36.2549 12.4585C35.7275 12.9712 35.083 13.2275 34.3213 13.2275C33.5889 13.2275 32.9663 12.9712 32.4536 12.4585C31.9409 11.9458 31.6846 11.3232 31.6846 10.5908C31.6846 9.8291 31.9409 9.18457 32.4536 8.65723C32.9663 8.12988 33.5889 7.86621 34.3213 7.86621C35.0537 7.86621 35.6909 8.13721 36.2329 8.6792C36.7749 9.22119 37.0459 9.8584 37.0459 10.5908Z" fill="#4849A3"/>
</svg>
