<svg width="16" height="18" viewBox="0 0 16 18" fill="none" xmlns="http://www.w3.org/2000/svg">
<path d="M14.5999 2.42232C13.5333 0.588984 8.71104 0.200095 8.16659 0.150095L7.55548 0.111206V11.3834C7.41424 11.2692 7.26372 11.167 7.10548 11.0779C6.54747 10.797 5.93837 10.632 5.31489 10.5929C4.69141 10.5537 4.06646 10.6412 3.4777 10.8501C1.18881 11.589 -0.283407 13.7001 0.194371 15.5557C0.300853 15.9481 0.487019 16.3144 0.741264 16.6317C0.99551 16.949 1.31239 17.2106 1.67215 17.4001C2.2889 17.7292 2.97871 17.8973 3.6777 17.889C4.24021 17.8885 4.79905 17.7985 5.33326 17.6223C7.38881 16.9612 8.7777 15.1945 8.69993 13.5001V3.71676C9.25548 3.78343 10.0166 3.9001 10.8221 4.07232C11.6196 4.19353 12.3857 4.46904 13.0777 4.88343C13.6333 5.2501 13.2888 5.93898 13.261 5.99454C12.9955 6.39774 12.6862 6.77037 12.3388 7.10565C12.2378 7.20585 12.179 7.341 12.1747 7.48323C12.1704 7.62546 12.2208 7.76393 12.3155 7.87009C12.4103 7.97625 12.5422 8.042 12.684 8.05379C12.8258 8.06557 12.9667 8.02249 13.0777 7.93343C13.1944 7.80565 16.1666 5.11121 14.5999 2.42232V2.42232Z" fill="#307474"/>
</svg>
