<svg width="25" height="23" viewBox="0 0 25 23" fill="none" xmlns="http://www.w3.org/2000/svg">
<path d="M19.5312 5.96875V1.32031C19.531 1.0614 19.428 0.813183 19.2449 0.630107C19.0618 0.44703 18.8136 0.344047 18.5547 0.34375H6.44531C6.1864 0.344047 5.93818 0.44703 5.75511 0.630107C5.57203 0.813183 5.46905 1.0614 5.46875 1.32031V5.96875L0.78125 9.3167V22.2188H24.2188V9.3167L19.5312 5.96875ZM22.1523 9.76108L19.5312 11.4746V7.88867L22.1523 9.76108ZM7.03125 1.90625H17.9688V12.4962L15.1774 14.3213L12.9031 13.142L10.4244 14.3387L7.03125 12.2786V1.90625ZM12.8781 14.8892L22.6562 19.9593V20.6562H2.34375V19.9748L12.8781 14.8892ZM2.34375 11.2605L8.74727 15.1484L2.34375 18.2397V11.2605ZM16.7698 15.1472L22.6562 11.2982V18.1993L16.7698 15.1472ZM5.46875 7.88867V11.3301L2.86455 9.74878L5.46875 7.88867Z" fill="#307474"/>
</svg>
