<svg width="43" height="41" viewBox="0 0 43 41" fill="none" xmlns="http://www.w3.org/2000/svg">
<path d="M42.125 20.5L37.625 15.25L38.1875 8.3125L31.4375 6.8125L27.875 0.8125L21.5 3.625L15.125 0.8125L11.5625 6.8125L4.8125 8.3125L5.375 15.25L0.875 20.5L5.375 25.75L4.8125 32.6875L11.5625 34.1875L15.125 40.1875L21.5 37.375L27.875 40.1875L31.4375 34.1875L38.1875 32.6875L37.625 25.75L42.125 20.5ZM34.0625 29.6875L29 30.8125L26.375 35.3125L21.5 33.25L16.625 35.3125L14 30.8125L8.9375 29.6875L9.3125 24.4375L5.9375 20.5L9.3125 16.5625L8.9375 11.3125L14 10.1875L16.625 5.6875L21.5 7.75L26.375 5.6875L29 10.1875L34.0625 11.3125L33.6875 16.5625L37.0625 20.5L33.6875 24.4375L34.0625 29.6875ZM30.125 12.25L32.75 14.875L17.75 29.875L10.25 22.375L12.875 19.75L17.75 24.625L30.125 12.25V12.25Z" fill="#454545"/>
</svg>
