<svg width="20" height="38" viewBox="0 0 20 38" fill="none" xmlns="http://www.w3.org/2000/svg">
<path d="M0.643916 1.29061C0.371346 1.56967 0.21875 1.94428 0.21875 2.33436C0.21875 2.72445 0.371346 3.09906 0.643916 3.37811L15.872 19L0.643916 34.6187C0.371346 34.8978 0.21875 35.2724 0.21875 35.6625C0.21875 36.0526 0.371346 36.4272 0.643916 36.7062C0.776404 36.8423 0.934809 36.9505 1.10978 37.0243C1.28475 37.0982 1.47275 37.1362 1.66267 37.1362C1.85258 37.1362 2.04058 37.0982 2.21555 37.0243C2.39052 36.9505 2.54893 36.8423 2.68142 36.7062L18.8752 20.0906C19.1596 19.7988 19.3188 19.4075 19.3188 19C19.3188 18.5925 19.1596 18.2012 18.8752 17.9094L2.68142 1.29374C2.54893 1.15767 2.39052 1.04951 2.21555 0.975665C2.04058 0.901816 1.85258 0.86377 1.66267 0.86377C1.47275 0.86377 1.28475 0.901816 1.10978 0.975665C0.934809 1.04951 0.776404 1.15767 0.643916 1.29374V1.29061Z" fill="#E0E0E0"/>
</svg>
