<svg width="36" height="36" viewBox="0 0 36 36" fill="none" xmlns="http://www.w3.org/2000/svg">
<path d="M19.35 15.75C18.45 15.525 17.55 15.075 16.875 14.4C16.2 14.175 15.975 13.5 15.975 13.05C15.975 12.6 16.2 11.925 16.65 11.7C17.325 11.25 18 10.8 18.675 11.025C20.025 11.025 21.15 11.7 21.825 12.6L23.85 9.9C23.175 9.225 22.5 8.775 21.825 8.325C21.15 7.875 20.25 7.65 19.35 7.65V4.5H16.65V7.65C15.525 7.875 14.4 8.55 13.5 9.45C12.6 10.575 11.925 11.925 12.15 13.275C12.15 14.625 12.6 15.975 13.5 16.875C14.625 18 16.2 18.675 17.55 19.35C18.225 19.575 19.125 20.025 19.8 20.475C20.25 20.925 20.475 21.6 20.475 22.275C20.475 22.95 20.25 23.625 19.8 24.3C19.125 24.975 18.225 25.2 17.55 25.2C16.65 25.2 15.525 24.975 14.85 24.3C14.175 23.85 13.5 23.175 13.05 22.5L10.8 24.975C11.475 25.875 12.15 26.55 13.05 27.225C14.175 27.9 15.525 28.575 16.875 28.575V31.5H19.35V28.125C20.7 27.9 21.825 27.225 22.725 26.325C23.85 25.2 24.525 23.4 24.525 21.825C24.525 20.475 24.075 18.9 22.95 18C21.825 16.875 20.7 16.2 19.35 15.75V15.75ZM18 0C8.1 0 0 8.1 0 18C0 27.9 8.1 36 18 36C27.9 36 36 27.9 36 18C36 8.1 27.9 0 18 0ZM18 33.525C9.45 33.525 2.475 26.55 2.475 18C2.475 9.45 9.45 2.475 18 2.475C26.55 2.475 33.525 9.45 33.525 18C33.525 26.55 26.55 33.525 18 33.525V33.525Z" fill="#454545"/>
</svg>
