<svg width="60" height="35" viewBox="0 0 60 35" fill="none" xmlns="http://www.w3.org/2000/svg">
<path d="M0.175781 5.24107C0.175781 3.53348 1.30859 2.61272 3.57422 2.47879L12.3047 2.52902C12.8906 2.52902 13.2813 2.78013 13.4766 3.28237C14.375 5.79353 15.3809 7.96149 16.4941 9.78627C17.6074 11.611 19.0625 13.7121 20.8594 16.0893C21.0156 16.3906 21.2695 16.5413 21.6211 16.5413C21.8945 16.5413 22.1094 16.4241 22.2656 16.1897L22.4414 15.6373L22.5 6.94866C22.5 6.34598 22.334 5.9442 22.002 5.7433C21.6699 5.54241 21.0547 5.39174 20.1562 5.29129C19.4531 5.19085 19.1016 4.82254 19.1016 4.18638C19.1016 4.05245 19.1211 3.95201 19.1602 3.88504C19.9805 1.70871 22.3242 0.620536 26.1914 0.620536L29.4727 0.570312C30.957 0.570312 32.1875 0.888393 33.1641 1.52455C34.1406 2.16071 34.6289 3.16518 34.6289 4.53795V15.9386C34.9023 16.106 35.1562 16.1897 35.3906 16.1897C35.9766 16.1897 36.4844 15.8884 36.9141 15.2857C41.2109 10.1295 43.5352 6.6808 43.8867 4.93973C43.8867 4.90625 43.9258 4.82254 44.0039 4.68862C44.2773 4.18638 44.7266 3.75112 45.3516 3.38281C45.9766 3.01451 46.5234 2.76339 46.9922 2.62946C47.1484 2.5625 47.3242 2.52902 47.5195 2.52902H56.6016L57.1875 2.57924C57.9687 2.57924 58.5742 2.89732 59.0039 3.53348C59.1602 3.73437 59.2676 3.95201 59.3262 4.18638C59.3848 4.42076 59.4238 4.65513 59.4434 4.88951C59.4629 5.12388 59.4727 5.25781 59.4727 5.29129V5.64286C59.1992 7.01562 58.5059 8.48047 57.3926 10.0374C56.2793 11.5943 54.8633 13.2768 53.1445 15.0848C51.4258 16.8929 50.3516 18.0815 49.9219 18.6507C49.5703 19.0525 49.3945 19.4208 49.3945 19.7556C49.3945 20.0234 49.5508 20.3248 49.8633 20.6596L58.418 29.9007C58.8867 30.4364 59.1211 31.0223 59.1211 31.6585C59.1211 32.4286 58.7695 33.0647 58.0664 33.567C57.3633 34.0692 56.5234 34.3538 55.5469 34.4208L54.5508 34.471H45.6445C45.6055 34.471 45.5273 34.4793 45.4102 34.4961C45.293 34.5128 45.2148 34.5212 45.1758 34.5212C44.3164 34.5212 43.5156 34.2031 42.7734 33.567C42.5 33.2991 40.6641 31.3237 37.2656 27.6406C37.0703 27.4062 36.7969 27.1886 36.4453 26.9877C36.2891 27.5234 36.084 28.2935 35.8301 29.298C35.5762 30.3025 35.3906 31.0223 35.2734 31.4576L35.0977 32.3114C34.707 33.4833 33.8867 34.1864 32.6367 34.4208L31.8164 34.471H26.0742C22.832 34.471 19.5996 33.1987 16.377 30.654C13.1543 28.1094 10.2539 24.8198 7.67578 20.7852C5.09766 16.7506 2.69531 12.0547 0.46875 6.69754C0.273438 6.26228 0.175781 5.77679 0.175781 5.24107ZM35.3906 18.2489C34.5703 18.2489 33.8281 18.0564 33.1641 17.6713C32.5 17.2863 32.168 16.7589 32.168 16.0893V4.53795C32.168 3.8683 31.9727 3.39118 31.582 3.10658C31.1914 2.82199 30.5078 2.67969 29.5312 2.67969L26.1914 2.78013C24.5117 2.78013 23.2422 3.03125 22.3828 3.53348C24.1016 4.23661 24.9609 5.375 24.9609 6.94866V15.7879C24.8828 16.625 24.4922 17.3198 23.7891 17.8722C23.0859 18.4247 22.3047 18.7009 21.4453 18.7009C20.2734 18.7009 19.375 18.2154 18.75 17.2444C15.7031 13.2935 13.4375 9.54353 11.9531 5.99442L11.4258 4.68862L3.63281 4.63839C3.125 4.63839 2.8418 4.6635 2.7832 4.71373C2.72461 4.76395 2.69531 4.90625 2.69531 5.14062C2.69531 5.44196 2.73437 5.76004 2.8125 6.09487L4.04297 8.90737C7.32422 16.173 10.8887 21.8984 14.7363 26.0837C18.584 30.269 22.3633 32.3616 26.0742 32.3616H31.9336C32.168 32.3616 32.3438 32.303 32.4609 32.1858C32.5781 32.0686 32.6758 31.8426 32.7539 31.5078L32.8711 31.0056L33.9844 26.5859C34.2969 25.9833 34.5703 25.5815 34.8047 25.3806C35.2344 25.0123 35.7422 24.8281 36.3281 24.8281C37.2656 24.8281 38.2227 25.3136 39.1992 26.2846L44.1797 31.7087C44.4922 32.144 44.8242 32.3616 45.1758 32.3616H54.8438C56.0156 32.3616 56.6016 32.1105 56.6016 31.6083C56.6016 31.4408 56.543 31.2734 56.4258 31.106L47.9297 22.0156C47.2656 21.3125 46.9336 20.5591 46.9336 19.7556C46.9336 18.952 47.2461 18.1819 47.8711 17.4453C48.3789 16.7757 49.3652 15.6624 50.8301 14.1055C52.2949 12.5485 53.5742 11.0921 54.668 9.73605C55.7617 8.38002 56.4844 7.14955 56.8359 6.04464L57.0117 5.39174C56.9727 5.32478 56.9531 5.21596 56.9531 5.06529C56.9531 4.91462 56.9336 4.78906 56.8945 4.68862H47.6953C47.1094 4.88951 46.6406 5.19085 46.2891 5.59263L45.9375 6.54687C44.9609 8.85714 42.4023 12.423 38.2617 17.2444C37.4414 17.9141 36.4844 18.2489 35.3906 18.2489Z" fill="#4849A3"/>
</svg>
