<svg width="60" height="39" viewBox="0 0 60 39" fill="none" xmlns="http://www.w3.org/2000/svg">
<path d="M54.3748 3.32811C53.8824 3.02677 53.2195 2.75892 52.3861 2.52454C51.5528 2.29017 50.2839 2.04742 48.5793 1.7963C46.8748 1.54519 44.4411 1.3443 41.2782 1.19363C38.1153 1.04296 34.3558 0.967621 29.9998 0.967621C16.818 0.967621 8.95811 1.654 6.42023 3.02677C3.42781 4.60043 1.62857 9.23771 1.02251 16.9386C0.946748 17.9431 0.88993 18.8973 0.852051 19.8013C0.88993 20.9397 0.975157 22.1367 1.10773 23.3923C1.24031 24.6479 1.47705 26.188 1.81796 28.0128C2.15887 29.8376 2.72705 31.4782 3.52251 32.9347C4.31796 34.3912 5.26493 35.4207 6.36341 36.0234C8.90129 37.3627 16.7801 38.0324 29.9998 38.0324C43.7877 38.0324 51.9127 37.2623 54.3748 35.7221C55.3596 35.0859 56.193 34.0815 56.8748 32.7087C57.5566 31.3359 58.049 29.7957 58.3521 28.0882C58.6551 26.3806 58.8539 24.8822 58.9486 23.5932C59.0433 22.3041 59.1096 21.0234 59.1475 19.7511C59.1096 18.6127 59.0433 17.4157 58.9486 16.1601C58.8539 14.9046 58.6646 13.356 58.3805 11.5145C58.0964 9.67298 57.6134 8.00724 56.9316 6.51729C56.2498 5.02733 55.3975 3.96427 54.3748 3.32811ZM52.2157 33.1105C51.8748 33.3114 51.2308 33.5206 50.2839 33.7383C49.3369 33.9559 47.0736 34.1903 43.4941 34.4414C39.9146 34.6925 35.4164 34.8181 29.9998 34.8181C24.7346 34.8181 20.3596 34.7009 16.8748 34.4665C13.3899 34.2321 11.174 34.0229 10.2271 33.8387C9.28008 33.6546 8.6172 33.462 8.23841 33.2612C7.29144 32.7589 6.44864 31.2857 5.71001 28.8415C4.97137 26.3973 4.56417 23.3839 4.48841 19.8013C4.56417 16.1853 4.98084 13.063 5.73841 10.4347C6.49599 7.80635 7.34826 6.24106 8.29523 5.73883C8.63614 5.57142 9.28008 5.38726 10.2271 5.18637C11.174 4.98548 13.3899 4.76784 16.8748 4.53347C20.3596 4.29909 24.7346 4.18191 29.9998 4.18191C35.4164 4.18191 39.9146 4.30746 43.4941 4.55858C47.0736 4.8097 49.3369 5.04407 50.2839 5.26171C51.2308 5.47934 51.8748 5.70534 52.2157 5.93972C52.6324 6.17409 53.0301 6.67633 53.4089 7.44642C53.7877 8.21651 54.1286 9.17912 54.4316 10.3343C54.7346 11.4894 54.9808 12.8873 55.1702 14.5279C55.3596 16.1685 55.4733 17.9096 55.5111 19.7511C55.4733 23.3672 55.1324 26.3555 54.4884 28.7159C53.8445 31.0764 53.0869 32.5413 52.2157 33.1105ZM41.818 18.2444L25.4543 9.3549C24.8483 9.02008 24.2422 9.01171 23.6361 9.32979C23.0301 9.64787 22.7271 10.125 22.7271 10.7611V28.4899C22.7271 29.1261 23.0301 29.5949 23.6361 29.8962C23.9392 30.0301 24.2422 30.0971 24.5452 30.0971C24.6967 30.0971 24.8577 30.0803 25.0282 30.0469C25.1986 30.0134 25.3407 29.9464 25.4543 29.846L41.818 21.0067C42.424 20.6719 42.7271 20.2031 42.7271 19.6004C42.6892 18.9978 42.3861 18.5457 41.818 18.2444ZM26.3634 25.6272V13.5736L37.3861 19.6004L26.3634 25.6272Z" fill="#4849A3"/>
</svg>
