<svg width="200" height="200" viewBox="0 0 200 200" fill="none" xmlns="http://www.w3.org/2000/svg">
<path d="M100 0C85.1 0 73.6308 3.90769 65.3846 10.3385C57.1385 16.7615 52.4 25.4077 49.0385 33.4154C45.6769 41.4154 43.5231 49.0692 41.3462 54.5692C39.1692 60.0692 37.3692 62.1923 35.8154 62.7385C14.6462 70.2308 1.42511e-05 88.6154 1.42511e-05 112.738C-0.00375651 114.699 0.740892 116.586 2.08188 118.016C3.42287 119.445 5.25904 120.309 7.2154 120.431C16.8846 120.946 21.5385 123.215 24.0385 125.477C26.5385 127.746 27.6846 130.746 28.3692 134.862C29.0462 138.969 29.1154 143.785 30.0462 149.038C30.5154 151.662 31.1539 154.438 32.9308 157.215C34.7154 159.985 37.8616 162.538 41.3462 163.7C49.5 166.423 54.7077 168.108 57.9308 169.954C61.1616 171.8 63.0769 173.438 65.6231 178.846C68.0539 183.985 71.3462 189.615 77.1616 193.754C82.9769 197.885 90.8539 200.123 100.723 200C116.885 199.8 126.531 191.438 131.492 184.131C133.969 180.485 135.715 177.308 137.262 175.238C138.8 173.169 139.723 172.362 141.346 171.877C151.869 168.708 158.546 163.031 162.262 156.731C165.969 150.423 166.954 144.408 168.031 140.146C169.108 135.877 169.769 134.015 172.115 132.454C174.462 130.885 180.046 129.177 191.831 129.808C192.88 129.873 193.932 129.722 194.921 129.365C195.91 129.008 196.815 128.451 197.581 127.73C198.347 127.01 198.956 126.139 199.372 125.174C199.788 124.208 200.002 123.167 200 122.115C200 111.508 200.154 99.2 195.431 87.7385C190.708 76.2769 180.262 66.4769 162.738 62.5C162.554 62.4538 162.338 62.5769 161.538 61.5385C160.738 60.5077 159.731 58.4615 158.654 55.7692C156.5 50.3846 154.185 42.5308 150.723 34.3769C147.262 26.2231 142.331 17.4692 134.131 10.8154C125.938 4.16923 114.654 0 100 0ZM100 15.3846C111.831 15.3846 119.085 18.4308 124.523 22.8385C129.954 27.2462 133.6 33.4538 136.538 40.3846C139.485 47.3077 141.562 54.8462 144.231 61.5385C145.569 64.8846 147.008 67.9846 149.277 70.9154C151.546 73.8385 155.123 76.6846 159.377 77.6462C173.308 80.8 178.169 86.2769 181.246 93.7538C183.546 99.3154 183.446 107.231 183.654 114.908C175.438 115.292 168.562 116.469 163.7 119.708C157.062 124.138 154.469 130.985 153.123 136.3C151.777 141.608 150.877 145.915 149.038 149.038C147.2 152.154 144.577 154.862 136.777 157.215C131.3 158.862 127.362 162.623 124.762 166.108C122.162 169.585 120.585 173.015 118.746 175.723C115.077 181.138 112.423 184.462 100.485 184.615C92.9231 184.715 88.8539 183.238 86.0539 181.246C83.2616 179.262 81.4692 176.392 79.5692 172.354C76.1308 165.077 71.3077 159.746 65.6231 156.492C59.9385 153.238 54.0077 151.662 46.1539 149.038C45.7231 148.892 46.0462 149.246 45.9154 149.038C45.5569 148.193 45.3137 147.303 45.1923 146.392C44.6539 143.346 44.4846 138.054 43.5077 132.215C42.5385 126.369 40.2231 119.485 34.3769 114.185C30.0308 110.246 23.7077 107.877 16.1077 106.492C18.1077 91.9154 26.6385 82.2 40.8692 77.1615C49.0231 74.2769 53.0616 67.1692 55.7692 60.3385C58.4769 53.5 60.4 45.9 63.2231 39.1846C66.0385 32.4692 69.6231 26.7846 75 22.5923C80.3769 18.4077 87.7154 15.3846 100 15.3846ZM80.7692 46.1538C74.4 46.1538 69.2308 53.0385 69.2308 61.5385C69.2308 70.0385 74.4 76.9231 80.7692 76.9231C87.1385 76.9231 92.3077 70.0385 92.3077 61.5385C92.3077 53.0385 87.1385 46.1538 80.7692 46.1538ZM111.538 46.1538C105.169 46.1538 100 53.0385 100 61.5385C100 70.0385 105.169 76.9231 111.538 76.9231C117.908 76.9231 123.077 70.0385 123.077 61.5385C123.077 53.0385 117.908 46.1538 111.538 46.1538Z" fill="#307474"/>
</svg>
