<svg width="92" height="84" viewBox="0 0 92 84" fill="none" xmlns="http://www.w3.org/2000/svg">
<path d="M46 0.333252C60.5833 0.333252 71 12.8333 75.1667 25.3333C87.6667 29.4999 91.8333 40.8749 91.8333 50.3333L80.2708 53.6374C79.4008 53.8863 78.6354 54.4116 78.0904 55.134C77.5454 55.8564 77.2504 56.7366 77.25 57.6416V63.8749C77.25 65.8088 76.4818 67.6634 75.1143 69.0309C73.7469 70.3984 71.8922 71.1666 69.9583 71.1666H67.475C66.0983 71.1664 64.743 71.5072 63.5302 72.1587C62.3174 72.8102 61.2849 73.752 60.525 74.8999C56.6583 80.7499 51.8167 83.6666 46 83.6666C40.1833 83.6666 35.3417 80.7458 31.475 74.8999C30.7151 73.752 29.6826 72.8102 28.4698 72.1587C27.257 71.5072 25.9017 71.1664 24.525 71.1666H22.0417C20.1078 71.1666 18.2531 70.3984 16.8857 69.0309C15.5182 67.6634 14.75 65.8088 14.75 63.8749V57.6416C14.7496 56.7366 14.4546 55.8564 13.9096 55.134C13.3646 54.4116 12.5992 53.8863 11.7292 53.6374L0.166668 50.3333C0.166668 40.8916 4.33333 29.4999 16.8333 25.3333C21 12.8333 31.4167 0.333252 46 0.333252ZM46 8.66658C37.2083 8.66658 29.0625 16.1166 25.1208 26.8791L24.7375 27.9666L23.4208 31.9249L19.4667 33.2374C14.2375 34.9833 10.8542 38.8249 9.36667 43.9041L9.27083 44.2624L14.0208 45.6249C16.508 46.3359 18.7134 47.801 20.3329 49.8182C21.9523 51.8354 22.906 54.3053 23.0625 56.8874L23.0833 57.6416V62.8332H24.525C27.1124 62.8332 29.6643 63.4357 31.9786 64.5928C34.2928 65.7499 36.3059 67.43 37.8583 69.4999L38.425 70.2999C40.825 73.9291 43.15 75.3333 46 75.3333C48.6583 75.3333 50.8625 74.1124 53.0958 70.9999L53.575 70.2999C55.0031 68.1428 56.9137 66.3477 59.1556 65.0568C61.3975 63.7659 63.9091 63.0146 66.4917 62.8624L67.475 62.8332H68.9167V57.6416C68.9162 55.054 69.7188 52.5301 71.2137 50.418C72.7085 48.306 74.822 46.7098 77.2625 45.8499L77.9833 45.6249L82.7292 44.2624L82.6333 43.8999C81.2292 39.1041 78.1333 35.4124 73.3833 33.5499L72.5333 33.2374L68.575 31.9208L67.2625 27.9666C63.4792 16.6249 55.0833 8.66658 46 8.66658ZM46 41.9999C49.45 41.9999 52.25 46.6666 52.25 52.4166C52.25 58.1666 49.45 62.8332 46 62.8332C42.55 62.8332 39.75 58.1666 39.75 52.4166C39.75 46.6666 42.55 41.9999 46 41.9999ZM35.5833 25.3333C37.2409 25.3333 38.8307 25.9917 40.0028 27.1638C41.1749 28.3359 41.8333 29.9256 41.8333 31.5833C41.8333 33.2409 41.1749 34.8306 40.0028 36.0027C38.8307 37.1748 37.2409 37.8333 35.5833 37.8333C33.9257 37.8333 32.336 37.1748 31.1639 36.0027C29.9918 34.8306 29.3333 33.2409 29.3333 31.5833C29.3333 29.9256 29.9918 28.3359 31.1639 27.1638C32.336 25.9917 33.9257 25.3333 35.5833 25.3333ZM56.4167 25.3333C58.0743 25.3333 59.664 25.9917 60.8361 27.1638C62.0082 28.3359 62.6667 29.9256 62.6667 31.5833C62.6667 33.2409 62.0082 34.8306 60.8361 36.0027C59.664 37.1748 58.0743 37.8333 56.4167 37.8333C54.7591 37.8333 53.1693 37.1748 51.9972 36.0027C50.8251 34.8306 50.1667 33.2409 50.1667 31.5833C50.1667 29.9256 50.8251 28.3359 51.9972 27.1638C53.1693 25.9917 54.7591 25.3333 56.4167 25.3333Z" fill="#307474"/>
</svg>
