<svg width="75" height="75" viewBox="0 0 75 75" fill="none" xmlns="http://www.w3.org/2000/svg">
<path d="M37.5 0C31.9125 0 27.6115 1.46538 24.5192 3.87692C21.4269 6.28558 19.65 9.52788 18.3894 12.5308C17.1289 15.5308 16.3212 18.401 15.5048 20.4635C14.6885 22.526 14.0135 23.3221 13.4308 23.5269C5.49231 26.3365 5.34417e-06 33.2308 5.34417e-06 42.2769C-0.00140869 43.012 0.277834 43.7198 0.780706 44.2559C1.28358 44.792 1.97214 45.116 2.70577 45.1615C6.33174 45.3548 8.07693 46.2058 9.01443 47.0538C9.95193 47.9048 10.3817 49.0298 10.6385 50.5731C10.8923 52.1135 10.9183 53.9192 11.2673 55.8894C11.4433 56.8731 11.6827 57.9144 12.349 58.9558C13.0183 59.9942 14.1981 60.9519 15.5048 61.3875C18.5625 62.4087 20.5154 63.0404 21.724 63.7327C22.9356 64.425 23.6539 65.0394 24.6087 67.0673C25.5202 68.9942 26.7548 71.1058 28.9356 72.6577C31.1164 74.2067 34.0702 75.0462 37.7712 75C43.8317 74.925 47.449 71.7894 49.3096 69.049C50.2385 67.6817 50.8933 66.4904 51.4731 65.7144C52.05 64.9385 52.3962 64.6356 53.0048 64.4538C56.951 63.2654 59.4548 61.1365 60.8481 58.774C62.2385 56.4087 62.6077 54.1529 63.0115 52.5548C63.4154 50.9538 63.6635 50.2558 64.5433 49.6702C65.4231 49.0817 67.5173 48.4413 71.9365 48.6779C72.3301 48.7023 72.7245 48.6458 73.0954 48.5118C73.4663 48.3779 73.8058 48.1693 74.0929 47.8989C74.38 47.6286 74.6086 47.3023 74.7646 46.9401C74.9207 46.5779 75.0008 46.1876 75 45.7933C75 41.8154 75.0577 37.2 73.2865 32.9019C71.5154 28.6038 67.5981 24.9288 61.0269 23.4375C60.9577 23.4202 60.8769 23.4663 60.5769 23.0769C60.2769 22.6904 59.899 21.9231 59.4952 20.9135C58.6875 18.8942 57.8192 15.949 56.5212 12.8913C55.2231 9.83365 53.374 6.55096 50.299 4.05577C47.2269 1.56346 42.9952 0 37.5 0ZM37.5 5.76923C41.9365 5.76923 44.6567 6.91154 46.6962 8.56442C48.7327 10.2173 50.1 12.5452 51.2019 15.1442C52.3067 17.7404 53.0856 20.5673 54.0865 23.0769C54.5885 24.3317 55.1279 25.4942 55.9788 26.5933C56.8298 27.6894 58.1712 28.7567 59.7663 29.1173C64.9904 30.3 66.8135 32.3538 67.9673 35.1577C68.8298 37.2433 68.7923 40.2115 68.8702 43.0904C65.7894 43.2346 63.2106 43.676 61.3875 44.8904C58.8981 46.5519 57.926 49.1192 57.4212 51.1125C56.9163 53.1029 56.5788 54.7183 55.8894 55.8894C55.2 57.0577 54.2163 58.0731 51.2913 58.9558C49.2375 59.5731 47.7606 60.9837 46.7856 62.2904C45.8106 63.5942 45.2192 64.8808 44.5298 65.8962C43.1539 67.9269 42.1587 69.1731 37.6817 69.2308C34.8462 69.2683 33.3202 68.7144 32.2702 67.9673C31.2231 67.2231 30.551 66.1471 29.8385 64.6327C28.549 61.9038 26.7404 59.9048 24.6087 58.6846C22.4769 57.4644 20.2529 56.8731 17.3077 55.8894C17.1462 55.8346 17.2673 55.9673 17.2183 55.8894C17.0839 55.5723 16.9927 55.2385 16.9471 54.8971C16.7452 53.7548 16.6817 51.7702 16.3154 49.5808C15.9519 47.3885 15.0837 44.8067 12.8914 42.8192C11.2615 41.3423 8.89039 40.4538 6.04039 39.9346C6.79039 34.4683 9.98943 30.825 15.326 28.9356C18.3837 27.8538 19.8981 25.1885 20.9135 22.6269C21.9289 20.0625 22.65 17.2125 23.7087 14.6942C24.7644 12.176 26.1087 10.0442 28.125 8.47212C30.1413 6.90288 32.8933 5.76923 37.5 5.76923ZM30.2885 17.3077C27.9 17.3077 25.9615 19.8894 25.9615 23.0769C25.9615 26.2644 27.9 28.8462 30.2885 28.8462C32.6769 28.8462 34.6154 26.2644 34.6154 23.0769C34.6154 19.8894 32.6769 17.3077 30.2885 17.3077ZM41.8269 17.3077C39.4385 17.3077 37.5 19.8894 37.5 23.0769C37.5 26.2644 39.4385 28.8462 41.8269 28.8462C44.2154 28.8462 46.1538 26.2644 46.1538 23.0769C46.1538 19.8894 44.2154 17.3077 41.8269 17.3077Z" fill="#307474"/>
</svg>
