<svg width="115" height="45" viewBox="0 0 115 45" fill="none" xmlns="http://www.w3.org/2000/svg">
<path d="M20.4343 0C19.2688 0 19.1607 0.204499 18.4751 1.07449C17.8066 1.94448 17.8794 3.75382 18.2898 5.52728C24.7562 33.4727 9.02566 31.733 14.8157 30.1989C19.638 28.9213 14.966 37.1203 11.5894 37.1203C10.321 37.1203 9.34405 36.8013 8.65844 36.1633C7.97284 35.5253 7.48435 34.7613 7.19297 33.872C6.90158 32.9827 6.61085 31.7937 6.31947 30.305C6.04522 28.913 5.65068 27.888 5.13648 27.2307C4.62227 26.5734 8.96876 27.7053 7.95749 27.7053C6.91194 27.7053 6.01572 29.2575 5.18181 29.6996C3.05864 30.8251 3.4298 30.0669 3.4298 31.4202C3.4298 32.6962 2.64723 32.9635 2.99003 34.3748C3.33283 35.7861 0.577214 37.1099 1.1257 38.1926C2.17124 40.2226 3.81525 42.6146 5.51211 43.5233C7.22612 44.4319 9.08759 43.9639 11.6415 43.9639C14.4696 43.9639 16.8685 43.3159 18.8397 42.0205C20.8108 40.7059 22.2248 38.8789 23.0818 36.5396C23.596 35.1476 23.9223 33.7757 24.0594 32.4224C24.2137 31.0691 24.6066 29.3919 24.2908 27.4917C22.9491 19.4184 18.808 9.53318 22.2689 4.10015C23.169 2.6871 23.9388 2.17498 23.2361 1.30499C22.5505 0.434995 21.617 0 20.4343 0V0ZM44.1384 11.7166C41.3789 11.7166 39.0738 12.1416 37.2227 12.9922C35.3716 13.8429 34.0089 14.9259 33.1348 16.2405C32.2607 17.5552 31.8236 18.9082 31.8236 20.3001C31.8236 21.1895 32.1064 21.9245 32.672 22.5045C33.2548 23.0651 33.9401 23.3451 34.7285 23.3451C35.6026 23.3451 36.1683 23.1711 36.4254 22.8231C36.6996 22.4558 37.1545 21.7118 37.7887 20.5905C38.44 19.4692 39.2113 18.6282 40.1026 18.0675C41.011 17.5069 42.3558 17.2258 44.1384 17.2258C46.2124 17.2258 47.575 17.7188 48.2263 18.7048C48.8948 19.6715 49.2725 21.1995 49.3582 23.2875C47.8842 23.7708 46.5126 24.1857 45.2443 24.5337C43.993 24.8624 42.485 25.2304 40.7196 25.6364C38.9542 26.0424 37.8486 26.3034 37.403 26.4194C35.2776 26.9414 33.6065 27.9654 32.3895 29.4927C31.1726 31.02 30.5635 32.867 30.5635 35.0323C30.5635 36.637 30.9323 38.1249 31.6693 39.4976C32.4063 40.8702 33.4516 41.9633 34.8056 42.7753C36.1768 43.5679 37.7629 43.9639 39.5627 43.9639C41.5338 43.9639 43.3078 43.5969 44.8846 42.8623C46.4787 42.1083 48.1241 40.9862 49.821 39.4976C50.6094 40.9476 51.355 42.0596 52.0578 42.8329C52.7605 43.5869 53.4715 43.9639 54.1914 43.9639C55.0484 43.9639 55.8108 43.6349 56.4793 42.9775C57.1649 42.3009 57.508 41.5569 57.508 40.7449C57.508 40.2809 57.2855 39.247 56.8399 37.6423C56.4113 36.0183 56.1968 34.4613 56.1968 32.9726C56.2139 31.3873 56.2228 29.9474 56.2228 28.6521C56.2399 27.3567 56.2479 25.7807 56.2479 23.9247C56.2479 20.9861 55.88 18.6282 55.143 16.8495C54.4231 15.0709 53.1801 13.7748 51.4147 12.9629C49.6493 12.1315 47.2236 11.7166 44.1384 11.7166V11.7166ZM64.4237 12.4702C63.3953 12.4702 62.5983 12.7413 62.0327 13.2826C61.4842 13.8239 61.2102 14.5489 61.2102 15.4576C61.2102 16.6949 61.5791 17.4578 62.3161 17.7478C63.0531 18.0378 64.1409 18.1828 65.5806 18.1828H76.0193C75.5908 18.8595 75.0163 19.6715 74.2964 20.6188C73.5936 21.5661 72.7027 22.7261 71.6228 24.0987C70.543 25.4521 69.3692 26.9121 68.1009 28.4781C66.8497 30.044 65.4524 31.794 63.9098 33.7274C62.4529 35.564 61.4927 36.83 61.03 37.526C60.5672 38.2026 60.3358 38.8796 60.3358 39.5563C60.3358 40.6969 60.6621 41.5959 61.3134 42.2533C61.9819 42.9106 62.9846 43.2385 64.3215 43.2385H83.3467C84.4779 43.2385 85.3174 42.9586 85.8659 42.3979C86.4315 41.8372 86.7144 41.1123 86.7144 40.2229C86.7144 39.2949 86.4315 38.5409 85.8659 37.9609C85.3003 37.3616 84.4608 37.0616 83.3467 37.0616H69.5914L82.4471 20.8515C82.927 20.2715 83.3295 19.7785 83.6552 19.3725C83.9808 18.9472 84.2379 18.5892 84.4265 18.2992C84.615 18.0092 84.7861 17.6422 84.9404 17.1975C85.0946 16.7335 85.1718 16.2885 85.1718 15.8632C85.1718 14.5872 84.7693 13.7072 83.9637 13.2239C83.1753 12.7212 82.0351 12.4702 80.5439 12.4702H64.4237ZM91.857 12.4702C90.8286 12.4702 90.0316 12.7413 89.466 13.2826C88.9175 13.8239 88.6426 14.5489 88.6426 15.4576C88.6426 16.6949 89.0115 17.4578 89.7485 17.7478C90.4855 18.0378 91.5742 18.1828 93.014 18.1828H103.452C103.023 18.8595 102.45 19.6715 101.73 20.6188C101.027 21.5661 100.135 22.7261 99.0552 24.0987C97.9754 25.4521 96.8016 26.9121 95.5333 28.4781C94.282 30.044 92.8848 31.794 91.3422 33.7274C89.8853 35.564 88.9261 36.83 88.4633 37.526C88.0005 38.2026 87.7691 38.8796 87.7691 39.5563C87.7691 40.6969 88.0945 41.5959 88.7458 42.2533C89.4142 42.9106 90.4169 43.2385 91.7539 43.2385H110.779C111.91 43.2385 112.751 42.9586 113.299 42.3979C113.865 41.8372 114.148 41.1123 114.148 40.2229C114.148 39.2949 113.865 38.5409 113.299 37.9609C112.734 37.3616 111.893 37.0616 110.779 37.0616H97.0248L109.88 20.8515C110.359 20.2715 110.762 19.7785 111.088 19.3725C111.413 18.9472 111.67 18.5892 111.859 18.2992C112.047 18.0092 112.219 17.6422 112.374 17.1975C112.528 16.7335 112.605 16.2885 112.605 15.8632C112.605 14.5872 112.202 13.7072 111.396 13.2239C110.608 12.7212 109.468 12.4702 107.977 12.4702H91.857ZM49.3582 28.0431V29.174C49.3582 31.9194 49.0408 33.8913 48.4066 35.09C47.8581 36.1726 46.9929 37.0616 45.8102 37.7576C44.6447 38.4342 43.3671 38.7733 41.9788 38.7733C40.6761 38.7733 39.622 38.3573 38.8164 37.526C38.0108 36.6753 37.6084 35.6503 37.6084 34.4516C37.6084 33.2916 37.9515 32.3926 38.6371 31.7547C39.3227 31.0973 40.0426 30.6623 40.7967 30.4497C41.5509 30.2177 42.9046 29.8697 44.8586 29.4057C46.8297 28.9223 48.3298 28.4684 49.3582 28.0431Z" fill="#307474"/>
<path d="M10.4534 25.1081C9.3354 25.2581 8.23951 25.5496 7.20108 25.9733C4.44593 27.0976 2.24371 29.0903 1.06393 31.5265C-0.115838 33.9627 -0.179821 36.6496 0.885622 39.0145C1.9511 41.3796 4.06187 43.2355 6.76786 44.1863C9.47385 45.1372 12.5609 45.1078 15.3708 44.1045L16.4533 43.662C19.1464 42.4193 21.2345 40.3367 22.2723 37.8582C23.3101 35.3796 23.2155 32.7013 22.0088 30.3941C21.036 28.5347 19.396 27.0232 17.3217 26.0743C15.2474 25.1253 12.8442 24.7873 10.4534 25.1081H10.4534Z" fill="#307474"/>
<path d="M20.4512 2.60868C22.0156 1.64244 25.792 -0.232601 28.6204 4.68868C35.1363 5.47739 38.4153 7.52428 25.8196 18.0649" stroke="#307474" stroke-width="2.765" stroke-linecap="round"/>
</svg>
